<svg width="28" height="27" viewBox="0 0 28 27" fill="none" xmlns="http://www.w3.org/2000/svg">
<path fill-rule="evenodd" clip-rule="evenodd" d="M16.6218 0.204795C16.0765 -6.02307e-08 15.3839 0 14.0001 0C12.6164 0 11.9238 -6.02307e-08 11.3785 0.204795C10.6527 0.477241 10.0749 1.0021 9.77224 1.66396C9.63371 1.96442 9.58066 2.31607 9.55856 2.82671C9.54873 3.1967 9.43585 3.55827 9.23059 3.87726C9.02533 4.19624 8.73448 4.46209 8.38553 4.64966C8.03001 4.83034 7.63035 4.92606 7.2236 4.92794C6.81684 4.92983 6.41615 4.83782 6.05864 4.66044C5.56055 4.42061 5.1995 4.28857 4.84288 4.24546C4.06266 4.1518 3.27355 4.34354 2.64714 4.779C2.17852 5.10506 1.83221 5.64938 1.14107 6.73668C0.448454 7.82398 0.10362 8.36696 0.025517 8.89916C-0.0776385 9.60786 0.134567 10.3246 0.614977 10.8919C0.833077 11.1506 1.14107 11.3675 1.61706 11.6396C2.31999 12.0398 2.77093 12.7216 2.77093 13.4734C2.77093 14.2252 2.31999 14.9069 1.61853 15.3057C1.14107 15.5793 0.833077 15.7962 0.613503 16.0549C0.376368 16.335 0.20231 16.6554 0.101387 16.9974C0.00046404 17.3395 -0.0253228 17.6964 0.025517 18.0476C0.10362 18.5784 0.448454 19.1228 1.14107 20.2101C1.83369 21.2974 2.17852 21.8403 2.64714 22.1677C3.27197 22.6029 4.06184 22.7942 4.84288 22.7013C5.1995 22.6582 5.56055 22.5261 6.05864 22.2863C6.41633 22.1087 6.8173 22.0165 7.22434 22.0184C7.63138 22.0203 8.0313 22.1162 8.38701 22.2971C9.1032 22.6743 9.52761 23.3682 9.55856 24.12C9.58066 24.632 9.63371 24.9823 9.77224 25.2828C10.0729 25.943 10.6505 26.4684 11.3785 26.7419C11.9238 26.9467 12.6164 26.9467 14.0001 26.9467C15.3839 26.9467 16.0765 26.9467 16.6218 26.7419C17.3476 26.4695 17.9254 25.9446 18.228 25.2828C18.3666 24.9823 18.4196 24.632 18.4417 24.12C18.4712 23.3682 18.8971 22.673 19.6147 22.2971C19.9703 22.1164 20.3699 22.0207 20.7767 22.0188C21.1834 22.0169 21.5841 22.1089 21.9416 22.2863C22.4397 22.5261 22.8008 22.6582 23.1574 22.7013C23.9384 22.7956 24.7283 22.6029 25.3531 22.1677C25.8218 21.8417 26.1681 21.2974 26.8592 20.2101C27.5518 19.1228 27.8967 18.5798 27.9748 18.0476C28.0254 17.6963 27.9994 17.3393 27.8982 16.9973C27.797 16.6552 27.6227 16.3349 27.3853 16.0549C27.1672 15.7962 26.8592 15.5793 26.3832 15.3071C25.6803 14.9069 25.2293 14.2252 25.2293 13.4734C25.2293 12.7216 25.6803 12.0398 26.3817 11.641C26.8592 11.3675 27.1672 11.1506 27.3868 10.8919C27.6239 10.6117 27.798 10.2913 27.8989 9.94932C27.9998 9.60728 28.0256 9.25036 27.9748 8.89916C27.8967 8.36831 27.5518 7.82398 26.8592 6.73668C26.1666 5.64938 25.8218 5.10641 25.3531 4.779C24.7267 4.34354 23.9376 4.1518 23.1574 4.24546C22.8008 4.28857 22.4397 4.42061 21.9416 4.66044C21.5839 4.83806 21.183 4.9302 20.7759 4.92831C20.3689 4.92643 19.969 4.83058 19.6133 4.64966C19.2646 4.46192 18.974 4.196 18.769 3.87703C18.5641 3.55806 18.4514 3.19657 18.4417 2.82671C18.4196 2.31472 18.3666 1.96442 18.228 1.66396C18.0782 1.3362 17.8593 1.03864 17.5837 0.78827C17.3081 0.537901 16.9812 0.339634 16.6218 0.204795ZM14.0001 17.5154C16.4611 17.5154 18.455 15.7059 18.455 13.4734C18.455 11.2408 16.4597 9.43136 14.0001 9.43136C11.5391 9.43136 9.5453 11.2408 9.5453 13.4734C9.5453 15.7059 11.5406 17.5154 14.0001 17.5154Z" fill="black"/>
</svg>
