<svg width="20" height="23" viewBox="0 0 20 23" fill="none" xmlns="http://www.w3.org/2000/svg">
<path d="M14.2939 14.4421H13.3905L13.0703 14.0876C14.2297 12.5437 14.8669 10.5725 14.8656 8.53397C14.8656 6.84611 14.4297 5.19616 13.613 3.79275C12.7962 2.38935 11.6354 1.29553 10.2772 0.649614C8.91906 0.00369764 7.42457 -0.165303 5.98274 0.163982C4.54092 0.493267 3.21652 1.30605 2.17702 2.49955C1.13753 3.69304 0.429619 5.21365 0.142823 6.86908C-0.143974 8.5245 0.00322052 10.2404 0.565792 11.7998C1.12836 13.3592 2.08105 14.692 3.30337 15.6297C4.52569 16.5674 5.96274 17.0679 7.43281 17.0679C9.27387 17.0679 10.9663 16.2933 12.2699 15.0067L12.5786 15.3743V16.4115L18.2962 22.9629L20 21.0067L14.2939 14.4421ZM7.43281 14.4421C4.58548 14.4421 2.28702 11.8031 2.28702 8.53397C2.28702 5.26481 4.58548 2.62584 7.43281 2.62584C10.2802 2.62584 12.5786 5.26481 12.5786 8.53397C12.5786 11.8031 10.2802 14.4421 7.43281 14.4421Z" fill="black"/>
</svg>
