<svg width="35" height="32" viewBox="0 0 35 32" fill="none" xmlns="http://www.w3.org/2000/svg">
<g clip-path="url(#clip0_69_77)">
<path fill-rule="evenodd" clip-rule="evenodd" d="M16.449 5.53592C15.9094 5.33325 15.224 5.33325 13.8546 5.33325C12.4853 5.33325 11.7998 5.33325 11.2603 5.53592C10.542 5.80553 9.97018 6.32494 9.67067 6.97992C9.53358 7.27725 9.48109 7.62525 9.45921 8.13059C9.44949 8.49672 9.33778 8.85454 9.13465 9.17021C8.93153 9.48588 8.6437 9.74896 8.29838 9.93459C7.94655 10.1134 7.55105 10.2081 7.14852 10.21C6.74599 10.2118 6.34946 10.1208 5.99567 9.94525C5.50275 9.70792 5.14546 9.57725 4.79254 9.53458C4.02044 9.4419 3.23952 9.63165 2.61963 10.0626C2.15588 10.3853 1.81317 10.9239 1.12921 11.9999C0.443793 13.0759 0.102543 13.6133 0.0252518 14.1399C-0.0768315 14.8413 0.133169 15.5506 0.608585 16.1119C0.824419 16.3679 1.12921 16.5826 1.60025 16.8519C2.29588 17.2479 2.74213 17.9226 2.74213 18.6666C2.74213 19.4106 2.29588 20.0853 1.60171 20.4799C1.12921 20.7506 0.824418 20.9653 0.607127 21.2213C0.372456 21.4985 0.200207 21.8155 0.100333 22.154C0.000459217 22.4925 -0.0250596 22.8457 0.0252518 23.1933C0.102543 23.7186 0.443793 24.2573 1.12921 25.3333C1.81463 26.4093 2.15588 26.9466 2.61963 27.2706C3.23796 27.7013 4.01963 27.8906 4.79254 27.7986C5.14546 27.7559 5.50275 27.6253 5.99567 27.3879C6.34964 27.2121 6.74644 27.121 7.14925 27.1228C7.55206 27.1247 7.94783 27.2195 8.29984 27.3986C9.00859 27.7719 9.42859 28.4586 9.45921 29.2026C9.48109 29.7093 9.53358 30.0559 9.67067 30.3533C9.96817 31.0066 10.5398 31.5266 11.2603 31.7973C11.7998 31.9999 12.4853 31.9999 13.8546 31.9999C15.224 31.9999 15.9094 31.9999 16.449 31.7973C17.1673 31.5276 17.7391 31.0082 18.0386 30.3533C18.1757 30.0559 18.2282 29.7093 18.25 29.2026C18.2792 28.4586 18.7007 27.7706 19.4109 27.3986C19.7627 27.2198 20.1582 27.1251 20.5607 27.1232C20.9633 27.1213 21.3598 27.2124 21.7136 27.3879C22.2065 27.6253 22.5638 27.7559 22.9167 27.7986C23.6896 27.8919 24.4713 27.7013 25.0896 27.2706C25.5534 26.9479 25.8961 26.4093 26.58 25.3333C27.2655 24.2573 27.6067 23.7199 27.684 23.1933C27.7341 22.8456 27.7084 22.4923 27.6082 22.1539C27.5081 21.8154 27.3356 21.4984 27.1007 21.2213C26.8848 20.9653 26.58 20.7506 26.109 20.4813C25.4134 20.0853 24.9671 19.4106 24.9671 18.6666C24.9671 17.9226 25.4134 17.2479 26.1075 16.8533C26.58 16.5826 26.8848 16.3679 27.1021 16.1119C27.3368 15.8347 27.509 15.5176 27.6089 15.1792C27.7088 14.8407 27.7343 14.4875 27.684 14.1399C27.6067 13.6146 27.2655 13.0759 26.58 11.9999C25.8946 10.9239 25.5534 10.3866 25.0896 10.0626C24.4697 9.63165 23.6888 9.4419 22.9167 9.53458C22.5638 9.57725 22.2065 9.70792 21.7136 9.94525C21.3596 10.121 20.9628 10.2122 20.56 10.2103C20.1572 10.2085 19.7614 10.1136 19.4094 9.93459C19.0644 9.7488 18.7768 9.48564 18.574 9.16999C18.3711 8.85433 18.2596 8.4966 18.25 8.13059C18.2282 7.62392 18.1757 7.27725 18.0386 6.97992C17.8904 6.65557 17.6737 6.3611 17.4009 6.11333C17.1282 5.86556 16.8047 5.66936 16.449 5.53592ZM13.8546 22.6666C16.29 22.6666 18.2632 20.8759 18.2632 18.6666C18.2632 16.4573 16.2886 14.6666 13.8546 14.6666C11.4192 14.6666 9.44609 16.4573 9.44609 18.6666C9.44609 20.8759 11.4207 22.6666 13.8546 22.6666Z" fill="black"/>
</g>
<defs>
<clipPath id="clip0_69_77">
<rect width="35" height="32" fill="white"/>
</clipPath>
</defs>
</svg>
