<svg width="27" height="31" viewBox="0 0 27 31" fill="none" xmlns="http://www.w3.org/2000/svg">
<path d="M17.7244 22.617H16.8356L16.5206 22.2683C17.6612 20.7493 18.2881 18.8101 18.2869 16.8045C18.2869 15.144 17.858 13.5207 17.0545 12.1401C16.251 10.7594 15.1089 9.68325 13.7727 9.04779C12.4366 8.41233 10.9663 8.24606 9.54777 8.57002C8.12928 8.89397 6.82632 9.6936 5.80365 10.8678C4.78098 12.042 4.08453 13.538 3.80238 15.1666C3.52022 16.7952 3.66503 18.4833 4.2185 20.0175C4.77197 21.5516 5.70923 22.8629 6.91176 23.7854C8.1143 24.708 9.52809 25.2004 10.9744 25.2004C12.7856 25.2004 14.4506 24.4383 15.7331 23.1724L16.0369 23.5341V24.5545L21.6619 30.9999L23.3381 29.0754L17.7244 22.617ZM10.9744 22.617C8.17312 22.617 5.91187 20.0208 5.91187 16.8045C5.91187 13.5883 8.17312 10.992 10.9744 10.992C13.7756 10.992 16.0369 13.5883 16.0369 16.8045C16.0369 20.0208 13.7756 22.617 10.9744 22.617Z" fill="black"/>
</svg>
