<svg width="45" height="44" viewBox="0 0 45 44" fill="none" xmlns="http://www.w3.org/2000/svg">
<path d="M45 5.18484C43.3149 6.0789 41.5276 6.66575 39.6974 6.92589C41.6037 5.55747 43.0675 3.39053 43.7567 0.808631C41.9445 2.0966 39.9618 3.00406 37.8942 3.49179C36.2101 1.34295 33.8108 0 31.1553 0C26.0566 0 21.9227 4.95074 21.9227 11.0568C21.9227 11.9236 22.0045 12.7674 22.1618 13.5768C14.4889 13.1156 7.68621 8.71368 3.1326 2.024C2.33807 3.65705 1.88279 5.55663 1.88279 7.58274C1.88279 11.4189 3.51281 14.8032 5.98992 16.7861C4.52382 16.7311 3.08997 16.2569 1.80809 15.4029C1.80756 15.4493 1.80756 15.4956 1.80756 15.5421C1.80756 20.8994 4.9899 25.3684 9.21322 26.3842C7.85371 26.827 6.42767 26.8918 5.04404 26.5737C6.21879 30.9665 9.62842 34.1632 13.6682 34.2526C10.5086 37.2181 6.52764 38.9859 2.20236 38.9859C1.45705 38.9859 0.722285 38.9335 0 38.8314C4.08568 41.9686 8.93848 43.7991 14.1521 43.7991C31.1338 43.7991 40.4198 26.9505 40.4198 12.3392C40.4198 11.8596 40.4111 11.3827 40.3931 10.9086C42.2006 9.34376 43.7606 7.4055 45 5.18484Z" fill="#55ACEE"/>
</svg>
