<svg width="49" height="37" viewBox="0 0 49 37" fill="none" xmlns="http://www.w3.org/2000/svg">
<path d="M40.8334 6.16675H8.16671C5.92087 6.16675 4.10379 7.55425 4.10379 9.25008L4.08337 27.7501C4.08337 29.4459 5.92087 30.8334 8.16671 30.8334H40.8334C43.0792 30.8334 44.9167 29.4459 44.9167 27.7501V9.25008C44.9167 7.55425 43.0792 6.16675 40.8334 6.16675ZM40.8334 12.3334L24.5 20.0417L8.16671 12.3334V9.25008L24.5 16.9584L40.8334 9.25008V12.3334Z" fill="black"/>
<path d="M40.8334 6.16675H8.16671C5.92087 6.16675 4.10379 7.55425 4.10379 9.25008L4.08337 27.7501C4.08337 29.4459 5.92087 30.8334 8.16671 30.8334H40.8334C43.0792 30.8334 44.9167 29.4459 44.9167 27.7501V9.25008C44.9167 7.55425 43.0792 6.16675 40.8334 6.16675ZM40.8334 12.3334L24.5 20.0417L8.16671 12.3334V9.25008L24.5 16.9584L40.8334 9.25008V12.3334Z" fill="black"/>
<path d="M40.8334 6.16675H8.16671C5.92087 6.16675 4.10379 7.55425 4.10379 9.25008L4.08337 27.7501C4.08337 29.4459 5.92087 30.8334 8.16671 30.8334H40.8334C43.0792 30.8334 44.9167 29.4459 44.9167 27.7501V9.25008C44.9167 7.55425 43.0792 6.16675 40.8334 6.16675ZM40.8334 12.3334L24.5 20.0417L8.16671 12.3334V9.25008L24.5 16.9584L40.8334 9.25008V12.3334Z" fill="black"/>
</svg>
