<svg width="24" height="24" viewBox="0 0 24 24" fill="none" xmlns="http://www.w3.org/2000/svg">
<path d="M6 18L3.7 20.3C3.38334 20.6167 3.02067 20.6877 2.612 20.513C2.20333 20.3383 1.99933 20.0257 2 19.575V4C2 3.45 2.196 2.979 2.588 2.587C2.98 2.195 3.45067 1.99934 4 2H20C20.55 2 21.021 2.196 21.413 2.588C21.805 2.98 22.0007 3.45067 22 4V16C22 16.55 21.804 17.021 21.412 17.413C21.02 17.805 20.5493 18.0007 20 18H6ZM12 15C12.2833 15 12.521 14.904 12.713 14.712C12.905 14.52 13.0007 14.2827 13 14C13 13.7167 12.904 13.479 12.712 13.287C12.52 13.095 12.2827 12.9993 12 13C11.7167 13 11.479 13.096 11.287 13.288C11.095 13.48 10.9993 13.7173 11 14C11 14.2833 11.096 14.521 11.288 14.713C11.48 14.905 11.7173 15.0007 12 15ZM12 11C12.2833 11 12.521 10.904 12.713 10.712C12.905 10.52 13.0007 10.2827 13 10V6C13 5.71667 12.904 5.479 12.712 5.287C12.52 5.095 12.2827 4.99934 12 5C11.7167 5 11.479 5.096 11.287 5.288C11.095 5.48 10.9993 5.71734 11 6V10C11 10.2833 11.096 10.521 11.288 10.713C11.48 10.905 11.7173 11.0007 12 11Z" fill="black"/>
</svg>
