<svg width="34" height="37" viewBox="0 0 34 37" fill="none" xmlns="http://www.w3.org/2000/svg">
<path d="M19.5925 29.2917C19.3809 29.2924 19.1717 29.2416 18.9805 29.1429C18.7893 29.0442 18.6208 28.9001 18.4875 28.7212L11.645 19.4712C11.4366 19.1954 11.3227 18.8494 11.3227 18.4923C11.3227 18.1352 11.4366 17.7892 11.645 17.5133L18.7283 8.26332C18.9688 7.94849 19.3143 7.7505 19.6889 7.71291C20.0635 7.67533 20.4365 7.80122 20.7258 8.0629C21.0151 8.32458 21.1971 8.70061 21.2316 9.10827C21.2661 9.51593 21.1505 9.92182 20.91 10.2367L14.5775 18.5L20.6975 26.7633C20.8707 26.9896 20.9808 27.2652 21.0146 27.5574C21.0484 27.8496 21.0046 28.1463 20.8884 28.4122C20.7721 28.6782 20.5883 28.9024 20.3587 29.0583C20.129 29.2141 19.8631 29.2951 19.5925 29.2917Z" fill="black"/>
</svg>
