<svg width="51" height="48" viewBox="0 0 51 48" fill="none" xmlns="http://www.w3.org/2000/svg">
<g clip-path="url(#clip0_34_37)">
<path d="M51 24C51 10.7453 39.5832 0 25.5 0C11.4168 0 0 10.7451 0 24C0 35.979 9.32503 45.9081 21.5156 47.7084V30.9375H15.041V24H21.5156V18.7125C21.5156 12.6975 25.3227 9.375 31.1473 9.375C33.9373 9.375 36.8555 9.84375 36.8555 9.84375V15.75H33.6401C30.4721 15.75 29.4844 17.6001 29.4844 19.4981V24H36.5566L35.4261 30.9375H29.4844V47.7084C41.675 45.9081 51 35.9792 51 24Z" fill="#1877F2"/>
<path d="M35.4261 30.9375L36.5566 24H29.4844V19.4981C29.4844 17.5999 30.4723 15.75 33.6401 15.75H36.8555V9.84375C36.8555 9.84375 33.9373 9.375 31.1473 9.375C25.3227 9.375 21.5156 12.6975 21.5156 18.7125V24H15.041V30.9375H21.5156V47.7084C22.8337 47.9028 24.1658 48.0003 25.5 48C26.8342 48.0004 28.1663 47.9029 29.4844 47.7084V30.9375H35.4261Z" fill="white"/>
</g>
<rect x="0.5" y="0.5" width="50" height="47" rx="23.5" stroke="white"/>
<defs>
<clipPath id="clip0_34_37">
<rect width="51" height="48" rx="24" fill="white"/>
</clipPath>
</defs>
</svg>
