<svg width="26" height="28" viewBox="0 0 26 28" fill="none" xmlns="http://www.w3.org/2000/svg">
<path d="M7.42857 8.12441C8.41366 8.12441 9.3584 7.69643 10.055 6.93461C10.7515 6.1728 11.1429 5.13957 11.1429 4.0622C11.1429 2.98484 10.7515 1.9516 10.055 1.18979C9.3584 0.427981 8.41366 0 7.42857 0C6.44348 0 5.49874 0.427981 4.80217 1.18979C4.10561 1.9516 3.71429 2.98484 3.71429 4.0622C3.71429 5.13957 4.10561 6.1728 4.80217 6.93461C5.49874 7.69643 6.44348 8.12441 7.42857 8.12441ZM0 12.6944C0 12.021 0.244578 11.3753 0.679931 10.8991C1.11528 10.423 1.70575 10.1555 2.32143 10.1555H8.24107C8.01024 10.8029 7.89214 11.4918 7.89286 12.1866C7.89286 14.0755 8.74993 15.7461 10.0629 16.7566H7.89286C7.21382 16.7565 6.54774 16.96 5.96705 17.3449C5.38636 17.7299 4.91327 18.2816 4.59921 18.94C2.82007 18.4394 1.68164 17.4654 0.978714 16.3605C-1.20228e-07 14.822 0 13.2286 0 12.9483V12.6944ZM21.4008 18.94C23.1799 18.4394 24.3184 17.4654 25.0213 16.3605C26 14.822 26 13.2275 26 12.9483V12.6944C26 12.021 25.7554 11.3753 25.3201 10.8991C24.8847 10.423 24.2943 10.1555 23.6786 10.1555H17.7589C17.9836 10.7851 18.1071 11.4696 18.1071 12.1866C18.1071 14.0755 17.2501 15.7461 15.9371 16.7566H18.1071C18.7862 16.7565 19.4523 16.96 20.0329 17.3449C20.6136 17.7299 21.0867 18.2816 21.4008 18.94ZM22.2857 4.0622C22.2857 5.13957 21.8944 6.1728 21.1978 6.93461C20.5013 7.69643 19.5565 8.12441 18.5714 8.12441C17.5863 8.12441 16.6416 7.69643 15.945 6.93461C15.2485 6.1728 14.8571 5.13957 14.8571 4.0622C14.8571 2.98484 15.2485 1.9516 15.945 1.18979C16.6416 0.427981 17.5863 0 18.5714 0C19.5565 0 20.5013 0.427981 21.1978 1.18979C21.8944 1.9516 22.2857 2.98484 22.2857 4.0622ZM5.57143 20.8188C5.57143 20.1454 5.81601 19.4997 6.25136 19.0235C6.68671 18.5474 7.27718 18.2799 7.89286 18.2799H18.1071C18.412 18.2799 18.7139 18.3456 18.9955 18.4732C19.2772 18.6008 19.5331 18.7878 19.7486 19.0235C19.9642 19.2593 20.1352 19.5392 20.2519 19.8472C20.3685 20.1552 20.4286 20.4854 20.4286 20.8188V21.0727C20.4286 21.352 20.4286 22.9464 19.4499 24.4849C18.4284 26.0905 16.4877 27.4199 13 27.4199C9.51321 27.4199 7.57157 26.0905 6.55014 24.4849C5.57143 22.9464 5.57143 21.353 5.57143 21.0727V20.8188ZM13 16.2488C13.9851 16.2488 14.9298 15.8208 15.6264 15.059C16.323 14.2972 16.7143 13.264 16.7143 12.1866C16.7143 11.1092 16.323 10.076 15.6264 9.3142C14.9298 8.55239 13.9851 8.12441 13 8.12441C12.0149 8.12441 11.0702 8.55239 10.3736 9.3142C9.67704 10.076 9.28571 11.1092 9.28571 12.1866C9.28571 13.264 9.67704 14.2972 10.3736 15.059C11.0702 15.8208 12.0149 16.2488 13 16.2488Z" fill="black"/>
</svg>
