<svg width="44" height="41" viewBox="0 0 44 41" fill="none" xmlns="http://www.w3.org/2000/svg">
<path d="M29.3334 17.0833C29.3334 18.8956 28.5608 20.6337 27.1855 21.9152C25.8103 23.1967 23.945 23.9167 22.0001 23.9167C20.0552 23.9167 18.1899 23.1967 16.8146 21.9152C15.4394 20.6337 14.6667 18.8956 14.6667 17.0833C14.6667 15.271 15.4394 13.5329 16.8146 12.2514C18.1899 10.9699 20.0552 10.25 22.0001 10.25C23.945 10.25 25.8103 10.9699 27.1855 12.2514C28.5608 13.5329 29.3334 15.271 29.3334 17.0833Z" fill="black"/>
<path fill-rule="evenodd" clip-rule="evenodd" d="M21.2521 37.5697C11.474 37.2042 3.66675 29.7012 3.66675 20.5001C3.66675 11.065 11.8746 3.41675 22.0001 3.41675C32.1256 3.41675 40.3334 11.065 40.3334 20.5001C40.3334 29.9352 32.1256 37.5834 22.0001 37.5834C21.9164 37.5839 21.8326 37.5839 21.7489 37.5834C21.583 37.5834 21.4171 37.5783 21.2521 37.5697ZM10.2356 31.2797C10.0985 30.9129 10.0518 30.522 10.0991 30.1361C10.1463 29.7502 10.2862 29.3792 10.5084 29.0505C10.7305 28.7219 11.0293 28.4441 11.3824 28.2378C11.7356 28.0315 12.1341 27.9019 12.5483 27.8587C19.6947 27.1216 24.3495 27.1882 31.461 27.8741C31.8758 27.9144 32.2753 28.0423 32.629 28.2481C32.9827 28.454 33.2814 28.7323 33.5022 29.062C33.723 29.3917 33.8602 29.7639 33.9033 30.1504C33.9464 30.537 33.8942 30.9276 33.7508 31.2925C36.7987 28.419 38.5055 24.5402 38.5001 20.5001C38.5001 12.0088 31.1127 5.12508 22.0001 5.12508C12.8875 5.12508 5.50008 12.0088 5.50008 20.5001C5.50008 24.6992 7.30683 28.5053 10.2356 31.2797Z" fill="black"/>
<path fill-rule="evenodd" clip-rule="evenodd" d="M21.2521 37.5697C11.474 37.2042 3.66675 29.7012 3.66675 20.5001C3.66675 11.065 11.8746 3.41675 22.0001 3.41675C32.1256 3.41675 40.3334 11.065 40.3334 20.5001C40.3334 29.9352 32.1256 37.5834 22.0001 37.5834C21.9164 37.5839 21.8326 37.5839 21.7489 37.5834C21.583 37.5834 21.4171 37.5783 21.2521 37.5697ZM10.2356 31.2797C10.0985 30.9129 10.0518 30.522 10.0991 30.1361C10.1463 29.7502 10.2862 29.3792 10.5084 29.0505C10.7305 28.7219 11.0293 28.4441 11.3824 28.2378C11.7356 28.0315 12.1341 27.9019 12.5483 27.8587C19.6947 27.1216 24.3495 27.1882 31.461 27.8741C31.8758 27.9144 32.2753 28.0423 32.629 28.2481C32.9827 28.454 33.2814 28.7323 33.5022 29.062C33.723 29.3917 33.8602 29.7639 33.9033 30.1504C33.9464 30.537 33.8942 30.9276 33.7508 31.2925C36.7987 28.419 38.5055 24.5402 38.5001 20.5001C38.5001 12.0088 31.1127 5.12508 22.0001 5.12508C12.8875 5.12508 5.50008 12.0088 5.50008 20.5001C5.50008 24.6992 7.30683 28.5053 10.2356 31.2797Z" fill="black"/>
</svg>
