<svg width="39" height="29" viewBox="0 0 39 29" fill="none" xmlns="http://www.w3.org/2000/svg">
<path d="M17.9419 8.05556C18.9187 8.05556 19.8554 7.6312 20.5461 6.87585C21.2367 6.12049 21.6247 5.09601 21.6247 4.02778C21.6247 2.95954 21.2367 1.93506 20.5461 1.17971C19.8554 0.424354 18.9187 0 17.9419 0C16.9652 0 16.0284 0.424354 15.3378 1.17971C14.6471 1.93506 14.2591 2.95954 14.2591 4.02778C14.2591 5.09601 14.6471 6.12049 15.3378 6.87585C16.0284 7.6312 16.9652 8.05556 17.9419 8.05556ZM10.5763 12.5868C10.5763 11.9192 10.8188 11.2789 11.2505 10.8068C11.6821 10.3347 12.2676 10.0694 12.878 10.0694H18.7475C18.5187 10.7113 18.4016 11.3944 18.4023 12.0833C18.4023 13.9562 19.2521 15.6127 20.5539 16.6146H18.4023C17.729 16.6145 17.0685 16.8163 16.4928 17.1979C15.917 17.5796 15.4479 18.1266 15.1365 18.7795C13.3725 18.2831 12.2437 17.3174 11.5467 16.2219C10.5763 14.6964 10.5763 13.1165 10.5763 12.8385V12.5868ZM31.7957 18.7795C33.5598 18.2831 34.6886 17.3174 35.3855 16.2219C36.356 14.6964 36.356 13.1155 36.356 12.8385V12.5868C36.356 11.9192 36.1134 11.2789 35.6818 10.8068C35.2501 10.3347 34.6647 10.0694 34.0542 10.0694H28.1847C28.4075 10.6937 28.53 11.3724 28.53 12.0833C28.53 13.9562 27.6802 15.6127 26.3783 16.6146H28.53C29.2033 16.6145 29.8637 16.8163 30.4395 17.1979C31.0152 17.5796 31.4843 18.1266 31.7957 18.7795ZM32.6731 4.02778C32.6731 5.09601 32.2851 6.12049 31.5945 6.87585C30.9038 7.6312 29.9671 8.05556 28.9903 8.05556C28.0136 8.05556 27.0769 7.6312 26.3862 6.87585C25.6955 6.12049 25.3075 5.09601 25.3075 4.02778C25.3075 2.95954 25.6955 1.93506 26.3862 1.17971C27.0769 0.424354 28.0136 0 28.9903 0C29.9671 0 30.9038 0.424354 31.5945 1.17971C32.2851 1.93506 32.6731 2.95954 32.6731 4.02778ZM16.1005 20.6424C16.1005 19.9747 16.343 19.3344 16.7747 18.8623C17.2063 18.3902 17.7918 18.125 18.4023 18.125H28.53C28.8323 18.125 29.1316 18.1901 29.4108 18.3166C29.6901 18.4431 29.9438 18.6286 30.1576 18.8623C30.3713 19.0961 30.5409 19.3736 30.6565 19.679C30.7722 19.9844 30.8317 20.3118 30.8317 20.6424V20.8941C30.8317 21.171 30.8317 22.7519 29.8613 24.2774C28.8485 25.8694 26.9243 27.1875 23.4661 27.1875C20.0089 27.1875 18.0837 25.8694 17.0709 24.2774C16.1005 22.7519 16.1005 21.172 16.1005 20.8941V20.6424ZM23.4661 16.1111C24.4429 16.1111 25.3796 15.6868 26.0703 14.9314C26.7609 14.176 27.1489 13.1516 27.1489 12.0833C27.1489 11.0151 26.7609 9.99062 26.0703 9.23526C25.3796 8.47991 24.4429 8.05556 23.4661 8.05556C22.4894 8.05556 21.5526 8.47991 20.862 9.23526C20.1713 9.99062 19.7833 11.0151 19.7833 12.0833C19.7833 13.1516 20.1713 14.176 20.862 14.9314C21.5526 15.6868 22.4894 16.1111 23.4661 16.1111Z" fill="black"/>
</svg>
