<svg width="20" height="20" viewBox="0 0 20 20" fill="none" xmlns="http://www.w3.org/2000/svg">
<path d="M15.3 14.89L18.07 17.66C18.2563 17.8474 18.3608 18.1008 18.3608 18.365C18.3608 18.6292 18.2563 18.8826 18.07 19.07C17.8826 19.2563 17.6292 19.3608 17.365 19.3608C17.1008 19.3608 16.8474 19.2563 16.66 19.07L14.07 16.49C13.2152 17.2811 12.1484 17.8058 11 18V9.04C11 8.77478 10.8946 8.52043 10.7071 8.33289C10.5196 8.14536 10.2652 8.04 10 8.04C9.73478 8.04 9.48043 8.14536 9.29289 8.33289C9.10536 8.52043 9 8.77478 9 9.04V18C7.85145 17.8064 6.78444 17.2816 5.93 16.49L3.34 19.07C3.15264 19.2563 2.89919 19.3608 2.635 19.3608C2.37081 19.3608 2.11736 19.2563 1.93 19.07C1.74375 18.8826 1.63921 18.6292 1.63921 18.365C1.63921 18.1008 1.74375 17.8474 1.93 17.66L4.7 14.89C4.38527 14.2999 4.17229 13.6609 4.07 13H1C0.734784 13 0.48043 12.8946 0.292893 12.7071C0.105357 12.5196 0 12.2652 0 12C0 11.7348 0.105357 11.4804 0.292893 11.2929C0.48043 11.1054 0.734784 11 1 11H4V8.41L0.93 5.34C0.743749 5.15264 0.639207 4.89919 0.639207 4.635C0.639207 4.37081 0.743749 4.11736 0.93 3.93C1.11736 3.74375 1.37081 3.63921 1.635 3.63921C1.89919 3.63921 2.15264 3.74375 2.34 3.93L4.44 6.03H15.56L17.66 3.93C17.8474 3.74375 18.1008 3.63921 18.365 3.63921C18.6292 3.63921 18.8826 3.74375 19.07 3.93C19.2563 4.11736 19.3608 4.37081 19.3608 4.635C19.3608 4.89919 19.2563 5.15264 19.07 5.34L16 8.41V11H19C19.2652 11 19.5196 11.1054 19.7071 11.2929C19.8946 11.4804 20 11.7348 20 12C20 12.2652 19.8946 12.5196 19.7071 12.7071C19.5196 12.8946 19.2652 13 19 13H15.93C15.83 13.67 15.61 14.31 15.3 14.89ZM15 5H5C5 3.67392 5.52678 2.40215 6.46447 1.46447C7.40215 0.526784 8.67392 0 10 0C11.3261 0 12.5979 0.526784 13.5355 1.46447C14.4732 2.40215 15 3.67392 15 5Z" fill="black"/>
</svg>
