<svg width="44" height="41" viewBox="0 0 44 41" fill="none" xmlns="http://www.w3.org/2000/svg">
<path d="M29.3333 17.0833C29.3333 18.8956 28.5607 20.6337 27.1854 21.9152C25.8101 23.1967 23.9449 23.9167 22 23.9167C20.055 23.9167 18.1898 23.1967 16.8145 21.9152C15.4392 20.6337 14.6666 18.8956 14.6666 17.0833C14.6666 15.271 15.4392 13.5329 16.8145 12.2514C18.1898 10.9699 20.055 10.25 22 10.25C23.9449 10.25 25.8101 10.9699 27.1854 12.2514C28.5607 13.5329 29.3333 15.271 29.3333 17.0833Z" fill="black"/>
<path fill-rule="evenodd" clip-rule="evenodd" d="M21.252 37.5697C11.4739 37.2042 3.66663 29.7012 3.66663 20.5001C3.66663 11.065 11.8745 3.41675 22 3.41675C32.1255 3.41675 40.3333 11.065 40.3333 20.5001C40.3333 29.9352 32.1255 37.5834 22 37.5834C21.9162 37.5839 21.8325 37.5839 21.7488 37.5834C21.5829 37.5834 21.417 37.5783 21.252 37.5697ZM10.2355 31.2797C10.0984 30.9129 10.0517 30.522 10.099 30.1361C10.1462 29.7502 10.2861 29.3792 10.5082 29.0505C10.7304 28.7219 11.0292 28.4441 11.3823 28.2378C11.7355 28.0315 12.134 27.9019 12.5482 27.8587C19.6945 27.1216 24.3494 27.1882 31.4609 27.8741C31.8757 27.9144 32.2751 28.0423 32.6289 28.2481C32.9826 28.454 33.2812 28.7323 33.5021 29.062C33.7229 29.3917 33.8601 29.7639 33.9032 30.1504C33.9462 30.537 33.8941 30.9276 33.7507 31.2925C36.7986 28.419 38.5054 24.5402 38.5 20.5001C38.5 12.0088 31.1125 5.12508 22 5.12508C12.8874 5.12508 5.49996 12.0088 5.49996 20.5001C5.49996 24.6992 7.30671 28.5053 10.2355 31.2797Z" fill="black"/>
</svg>
