<svg width="37" height="35" viewBox="0 0 37 35" fill="none" xmlns="http://www.w3.org/2000/svg">
<path d="M25.9 13.7908C25.9 15.6196 25.1203 17.3735 23.7326 18.6666C22.3448 19.9598 20.4626 20.6863 18.5 20.6863C16.5374 20.6863 14.6552 19.9598 13.2674 18.6666C11.8796 17.3735 11.1 15.6196 11.1 13.7908C11.1 11.962 11.8796 10.2081 13.2674 8.915C14.6552 7.62185 16.5374 6.89537 18.5 6.89537C20.4626 6.89537 22.3448 7.62185 23.7326 8.915C25.1203 10.2081 25.9 11.962 25.9 13.7908Z" fill="black"/>
<path fill-rule="evenodd" clip-rule="evenodd" d="M17.7452 34.4635C7.87822 34.0946 0 26.5234 0 17.2386C0 7.71773 8.28245 0 18.5 0C28.7175 0 37 7.71773 37 17.2386C37 26.7595 28.7175 34.4773 18.5 34.4773C18.4155 34.4778 18.331 34.4778 18.2465 34.4773C18.0791 34.4773 17.9117 34.4721 17.7452 34.4635ZM6.62855 28.1162C6.49023 27.7461 6.44314 27.3516 6.4908 26.9622C6.53845 26.5728 6.67961 26.1984 6.90381 25.8668C7.128 25.5352 7.42947 25.2549 7.78583 25.0467C8.1422 24.8385 8.54431 24.7077 8.96232 24.6642C16.1736 23.9203 20.8708 23.9875 28.0469 24.6797C28.4655 24.7203 28.8686 24.8494 29.2255 25.0571C29.5825 25.2648 29.8838 25.5457 30.1066 25.8784C30.3295 26.211 30.4679 26.5867 30.5114 26.9767C30.5549 27.3668 30.5023 27.7609 30.3576 28.1291C33.4331 25.2295 35.1555 21.3155 35.15 17.2386C35.15 8.67017 27.6954 1.72386 18.5 1.72386C9.30457 1.72386 1.85 8.67017 1.85 17.2386C1.85 21.4759 3.67317 25.3166 6.62855 28.1162Z" fill="black"/>
</svg>
