<svg width="39" height="29" viewBox="0 0 39 29" fill="none" xmlns="http://www.w3.org/2000/svg">
<g clip-path="url(#clip0_68_98)">
<g clip-path="url(#clip1_68_98)">
<path d="M17.4419 8.05556C18.4187 8.05556 19.3554 7.6312 20.0461 6.87585C20.7367 6.12049 21.1247 5.09601 21.1247 4.02778C21.1247 2.95954 20.7367 1.93506 20.0461 1.17971C19.3554 0.424354 18.4187 0 17.4419 0C16.4652 0 15.5284 0.424354 14.8378 1.17971C14.1471 1.93506 13.7591 2.95954 13.7591 4.02778C13.7591 5.09601 14.1471 6.12049 14.8378 6.87585C15.5284 7.6312 16.4652 8.05556 17.4419 8.05556ZM10.0763 12.5868C10.0763 11.9192 10.3188 11.2789 10.7505 10.8068C11.1821 10.3347 11.7676 10.0694 12.378 10.0694H18.2475C18.0187 10.7113 17.9016 11.3944 17.9023 12.0833C17.9023 13.9562 18.7521 15.6127 20.0539 16.6146H17.9023C17.229 16.6145 16.5685 16.8163 15.9928 17.1979C15.417 17.5796 14.9479 18.1266 14.6365 18.7795C12.8725 18.2831 11.7437 17.3174 11.0467 16.2219C10.0763 14.6964 10.0763 13.1165 10.0763 12.8385V12.5868ZM31.2957 18.7795C33.0598 18.2831 34.1886 17.3174 34.8855 16.2219C35.856 14.6964 35.856 13.1155 35.856 12.8385V12.5868C35.856 11.9192 35.6134 11.2789 35.1818 10.8068C34.7501 10.3347 34.1647 10.0694 33.5542 10.0694H27.6847C27.9075 10.6937 28.03 11.3724 28.03 12.0833C28.03 13.9562 27.1802 15.6127 25.8783 16.6146H28.03C28.7033 16.6145 29.3637 16.8163 29.9395 17.1979C30.5152 17.5796 30.9843 18.1266 31.2957 18.7795ZM32.1731 4.02778C32.1731 5.09601 31.7851 6.12049 31.0945 6.87585C30.4038 7.6312 29.4671 8.05556 28.4903 8.05556C27.5136 8.05556 26.5769 7.6312 25.8862 6.87585C25.1955 6.12049 24.8075 5.09601 24.8075 4.02778C24.8075 2.95954 25.1955 1.93506 25.8862 1.17971C26.5769 0.424354 27.5136 0 28.4903 0C29.4671 0 30.4038 0.424354 31.0945 1.17971C31.7851 1.93506 32.1731 2.95954 32.1731 4.02778ZM15.6005 20.6424C15.6005 19.9747 15.843 19.3344 16.2747 18.8623C16.7063 18.3902 17.2918 18.125 17.9023 18.125H28.03C28.3323 18.125 28.6316 18.1901 28.9108 18.3166C29.1901 18.4431 29.4438 18.6286 29.6576 18.8623C29.8713 19.0961 30.0409 19.3736 30.1565 19.679C30.2722 19.9844 30.3317 20.3118 30.3317 20.6424V20.8941C30.3317 21.171 30.3317 22.7519 29.3613 24.2774C28.3485 25.8694 26.4243 27.1875 22.9661 27.1875C19.5089 27.1875 17.5837 25.8694 16.5709 24.2774C15.6005 22.7519 15.6005 21.172 15.6005 20.8941V20.6424ZM22.9661 16.1111C23.9429 16.1111 24.8796 15.6868 25.5703 14.9314C26.2609 14.176 26.6489 13.1516 26.6489 12.0833C26.6489 11.0151 26.2609 9.99062 25.5703 9.23526C24.8796 8.47991 23.9429 8.05556 22.9661 8.05556C21.9894 8.05556 21.0526 8.47991 20.362 9.23526C19.6713 9.99062 19.2833 11.0151 19.2833 12.0833C19.2833 13.1516 19.6713 14.176 20.362 14.9314C21.0526 15.6868 21.9894 16.1111 22.9661 16.1111Z" fill="black"/>
</g>
</g>
<defs>
<clipPath id="clip0_68_98">
<rect width="39" height="29" fill="white"/>
</clipPath>
<clipPath id="clip1_68_98">
<rect width="39" height="29" fill="white" transform="translate(-0.5)"/>
</clipPath>
</defs>
</svg>
