<svg width="32" height="28" viewBox="0 0 32 28" fill="none" xmlns="http://www.w3.org/2000/svg">
<path d="M16 5.6875C16.8284 5.6875 17.5 5.09987 17.5 4.375C17.5 3.65013 16.8284 3.0625 16 3.0625C15.1716 3.0625 14.5 3.65013 14.5 4.375C14.5 5.09987 15.1716 5.6875 16 5.6875Z" stroke="black" stroke-width="1.5" stroke-linecap="round" stroke-linejoin="round"/>
<path d="M16 15.3125C16.8284 15.3125 17.5 14.7249 17.5 14C17.5 13.2751 16.8284 12.6875 16 12.6875C15.1716 12.6875 14.5 13.2751 14.5 14C14.5 14.7249 15.1716 15.3125 16 15.3125Z" stroke="black" stroke-width="1.5" stroke-linecap="round" stroke-linejoin="round"/>
<path d="M16 24.9375C16.8284 24.9375 17.5 24.3499 17.5 23.625C17.5 22.9001 16.8284 22.3125 16 22.3125C15.1716 22.3125 14.5 22.9001 14.5 23.625C14.5 24.3499 15.1716 24.9375 16 24.9375Z" stroke="black" stroke-width="1.5" stroke-linecap="round" stroke-linejoin="round"/>
</svg>
